#!OML:ASF F:\twosubjects\two\Thursday\Session 1\Rory.ASF
:FULLY-SPECIFIED
:DEGREES
465
root 12.9075 14.8455 10.5826 -171.549 -64.506 163.132
lowerback 29.0907 3.77245 -3.41182
upperback 10.9768 2.10932 -3.44936
thorax -3.67297 0.387178 -2.46355
lowerneck -14.3191 -4.50607 -5.31743
upperneck -2.67331 -5.64534 8.51829
head 2.11013 -2.67461 3.41712
rclavicle 3.88624e-014 -2.10712e-014
rhumerus 76.1024 6.91733 -68.4967
rradius 27.5606
rwrist -25.5532
rhand -5.09603 -13.5364
rfingers 7.12502
rthumb 20.7011 -42.4524
lclavicle 3.88624e-014 -2.10712e-014
lhumerus -29.639 -24.0596 90.5817
lradius 81.4427
lwrist -28.5245
lhand -7.21623 35.3172
lfingers 7.12502
lthumb 18.6628 64.442
rfemur -51.9596 12.9833 -7.27226
rtibia 51.8342
rfoot -5.18046 4.20636
rtoes -36.8278
lfemur -33.7361 5.64049 1.5731
ltibia 58.5894
lfoot -14.797 -0.487379
ltoes -17.5427
466
root 12.8283 14.8791 10.6134 -171.34 -64.3611 162.636
lowerback 28.8915 3.8012 -3.43827
upperback 10.9681 2.1711 -3.35205
thorax -3.5954 0.419079 -2.35286
lowerneck -14.7869 -4.64288 -5.54081
upperneck -2.42218 -5.7831 8.79828
head 2.06057 -2.71396 3.20633
rclavicle -1.54555e-014 2.34566e-014
rhumerus 75.5336 7.07884 -67.8166
rradius 27.6066
rwrist -26.0391
rhand -5.09634 -13.6012
rfingers 7.12502
rthumb 20.7008 -42.5172
lclavicle -1.54555e-014 2.34566e-014
lhumerus -29.4118 -24.1121 90.8298
lradius 80.466
lwrist -27.7444
lhand -7.55611 34.848
lfingers 7.12502
lthumb 18.3359 64.0038
rfemur -51.3457 13.0133 -7.57126
rtibia 51.5039
rfoot -5.16042 4.68365
rtoes -37.5356
lfemur -33.1346 5.53817 1.12978
ltibia 58.412
lfoot -14.7843 -0.462639
ltoes -16.7323
467
root 12.749 14.9234 10.6377 -171.52 -64.4837 162.624
lowerback 28.645 3.67031 -3.26273
upperback 10.9045 2.1065 -3.18881
thorax -3.55546 0.400122 -2.24468
lowerneck -14.8087 -4.65697 -5.64719
upperneck -2.60105 -5.7788 8.77716
head 2.01162 -2.71699 3.21904
rclavicle -6.14866e-014 1.26974e-014
rhumerus 74.9699 7.52474 -68.2219
rradius 27.151
rwrist -25.5895
rhand -4.79887 -12.6133
rfingers 7.12502
rthumb 20.9867 -41.4978
lclavicle -6.14866e-014 1.26974e-014
lhumerus -29.346 -24.1508 90.9939
lradius 79.5271
lwrist -27.0435
lhand -10.0063 36.9588
lfingers 7.12502
lthumb 15.9776 66.3198
rfemur -50.5825 12.9263 -7.52801
rtibia 51.1711
rfoot -5.32721 5.04873
rtoes -38.6315
lfemur -32.6375 5.44415 0.921996
ltibia 58.2413
lfoot -14.6015 -0.528554
ltoes -16.8697
468
root 12.6772 14.981 10.6277 -172.224 -64.622 162.924
lowerback 28.4589 3.65001 -3.2881
upperback 10.9149 2.1083 -3.03006
thorax -3.46587 0.400237 -2.04887
lowerneck -14.4799 -4.57391 -5.5081
upperneck -3.04952 -5.69612 8.53371
head 2.02289 -2.70744 3.4534
rclavicle -4.47266e-016 1.01132e-014
rhumerus 74.2111 7.84803 -69.1079
rradius 26.8928
rwrist -24.9851
rhand -4.52998 -12.1254
rfingers 7.12502
rthumb 21.245 -40.9811
lclavicle -4.47266e-016 1.01132e-014
lhumerus -29.2575 -24.1739 90.8969
lradius 78.6552
lwrist -26.6084
lhand -14.5564 42.556
lfingers 7.12502
lthumb 11.5925 72.2154
rfemur -49.4997 13.4996 -7.29812
rtibia 50.8469
rfoot -5.65089 4.72312
rtoes -40.269
lfemur -31.6977 5.46356 0.969706
ltibia 57.9483
lfoot -14.3832 -0.640247
ltoes -17.4328
469
root 12.599 15.0119 10.668 -171.944 -64.4082 162.679
lowerback 27.9715 3.6178 -2.99298
upperback 10.8243 2.19973 -3.10175
thorax -3.32527 0.468133 -2.30784
lowerneck -14.3975 -4.60664 -5.44747
upperneck -3.21877 -5.74585 8.48516
head 1.94933 -2.73959 3.42178
rclavicle 5.08765e-015 1.55238e-014
rhumerus 73.5733 7.79409 -69.284
rradius 26.7494
rwrist -24.8853
rhand -4.23573 -12.0757
rfingers 7.12502
rthumb 21.5276 -40.8993
lclavicle 5.08765e-015 1.55238e-014
lhumerus -29.0635 -24.2846 90.9915
lradius 77.6951
lwrist -26.4197
lhand -9.66385 38.2531
lfingers 7.12502
lthumb 16.3073 67.5874
rfemur -49.2114 13.613 -7.66288
rtibia 50.4741
rfoot -5.79438 5.13592
rtoes -41.3683
lfemur -31.4246 5.52675 0.534817
ltibia 57.7746
lfoot -13.8235 -0.396095
ltoes -17.5347
470
root 12.5227 15.0605 10.6827 -171.716 -64.2653 162.194
lowerback 27.7394 3.6971 -3.23565
upperback 10.7641 2.27658 -2.99779
thorax -3.29751 0.504827 -2.07092
lowerneck -14.8379 -4.68482 -5.84606
upperneck -2.68349 -5.78717 8.99827
head 2.00634 -2.71513 3.3183
rclavicle 3.65018e-014 -3.51352e-014
rhumerus 73.1684 7.96727 -69.0387
rradius 26.4484
rwrist -25.182
rhand -3.4297 -11.7303
rfingers 7.12502
rthumb 22.3015 -40.4634
lclavicle 3.65018e-014 -3.51352e-014
lhumerus -29.0329 -24.1617 91.2286
lradius 76.7943
lwrist -26.2287
lhand -7.2055 34.0113
lfingers 7.12502
lthumb 18.6732 63.135
rfemur -48.5242 13.8381 -7.96311
rtibia 50.1083
rfoot -5.9554 5.6501
rtoes -41.6742
lfemur -30.6768 5.50818 0.120902
ltibia 57.4793
lfoot -13.3641 -0.462742
ltoes -17.4223
471
root 12.45 15.1017 10.6969 -171.86 -64.1904 162.05
lowerback 27.6895 3.67093 -3.37784
upperback 10.6474 2.22931 -2.93514
thorax -3.41379 0.484988 -1.9074
lowerneck -14.8589 -4.6894 -6.0375
upperneck -2.58932 -5.77801 9.37433
head 2.05818 -2.69585 3.46309
rclavicle -1.36913e-014 4.12478e-015
rhumerus 72.6703 8.39442 -69.3025
rradius 26.0746
rwrist -24.8765
rhand -3.18472 -11.8111
rfingers 7.12502
rthumb 22.5367 -40.5158
lclavicle -1.36913e-014 4.12478e-015
lhumerus -29.0418 -23.8474 91.2956
lradius 75.9402
lwrist -25.9671
lhand -4.68788 33.2492
lfingers 7.12502
lthumb 21.0933 62.1219
rfemur -47.7793 14.0707 -8.0633
rtibia 49.7138
rfoot -6.04766 5.94517
rtoes -41.6562
lfemur -29.9818 5.52846 -0.0847126
ltibia 57.2615
lfoot -13.1661 -0.551725
ltoes -19.3959
472
root 12.3787 15.1356 10.7169 -172.197 -64.2172 162.287
lowerback 27.516 3.58851 -3.06911
upperback 10.5356 2.23685 -2.93769
thorax -3.44519 0.507843 -2.08396
lowerneck -14.5598 -4.70954 -5.60692
upperneck -2.96834 -5.87242 9.28626
head 1.89052 -2.76633 3.36943
rclavicle 2.46741e-014 1.2424e-014
rhumerus 72.0103 8.53711 -70.9956
rradius 25.4612
rwrist -23.1247
rhand -3.54175 -12.0428
rfingers 7.12502
rthumb 22.1939 -40.7887
lclavicle 2.46741e-014 1.2424e-014
lhumerus -28.9169 -23.8097 91.241
lradius 75.0407
lwrist -25.9201
lhand -5.51891 33.6776
lfingers 7.12502
lthumb 20.2948 62.6373
rfemur -47.1817 14.3459 -8.07575
rtibia 49.3142
rfoot -6.07593 5.94965
rtoes -41.7711
lfemur -29.5735 5.66856 -0.140913
ltibia 57.0465
lfoot -13.1114 -0.552777
ltoes -22.079
473
root 12.3012 15.1814 10.7317 -172.764 -64.3496 162.916
lowerback 27.0971 3.45127 -2.64468
upperback 10.4375 2.23656 -2.82493
thorax -3.34617 0.531979 -2.18853
lowerneck -14.2208 -4.65097 -5.38635
upperneck -3.45927 -5.8295 8.9215
head 1.86088 -2.78219 3.55972
rclavicle 4.04527e-014 7.15625e-015
rhumerus 71.4039 8.6571 -72.7712
rradius 24.9299
rwrist -21.542
rhand -3.88444 -12.282
rfingers 7.12502
rthumb 21.8649 -41.0666
lclavicle 4.04527e-014 7.15625e-015
lhumerus -28.8586 -23.69 91.2092
lradius 74.2039
lwrist -26.0522
lhand -6.22058 33.6944
lfingers 7.12502
lthumb 19.6203 62.7243
rfemur -46.5828 14.5817 -7.87939
rtibia 48.9112
rfoot -6.09736 5.91901
rtoes -41.6773
lfemur -29.2717 5.85995 -0.0271878
ltibia 56.8432
lfoot -13.1835 -0.673804
ltoes -23.3232
474
root 12.2236 15.2318 10.7455 -172.914 -64.4163 163.05
lowerback 26.6812 3.43537 -2.58321
upperback 10.4463 2.29085 -2.60476
thorax -3.14702 0.564678 -1.98321
lowerneck -14.5873 -4.66907 -5.46469
upperneck -3.47775 -5.83279 8.85605
head 1.92027 -2.78048 3.54716
rclavicle -9.22361e-014 3.73715e-014
rhumerus 71.076 8.81817 -72.6321
rradius 24.7744
rwrist -21.538
rhand -4.728 -12.3844
rfingers 7.12502
rthumb 21.0547 -41.2614
lclavicle -9.22361e-014 3.73715e-014
lhumerus -28.6565 -23.63 91.4586
lradius 73.4224
lwrist -25.7194
lhand -6.15677 34.7976
lfingers 7.12502
lthumb 19.6816 63.8212
rfemur -45.9663 14.6736 -7.85585
rtibia 48.5183
rfoot -6.12637 6.0791
rtoes -41.0704
lfemur -28.8729 5.96143 -0.166193
ltibia 56.6036
lfoot -13.282 -0.621544
ltoes -23.5434
475
root 12.152 15.2745 10.7546 -172.484 -64.3137 162.408
lowerback 26.4365 3.64039 -2.85794
upperback 10.5303 2.51162 -2.44911
thorax -2.9541 0.662216 -1.70952
lowerneck -15.1881 -4.87855 -5.6622
upperneck -3.38864 -6.06446 9.19005
head 1.86988 -2.86969 3.33004
rclavicle 6.2816e-014 1.13307e-014
rhumerus 70.801 8.69604 -71.6303
rradius 24.6901
rwrist -22.0565
rhand -6.06482 -11.8234
rfingers 7.12502
rthumb 19.77 -40.838
lclavicle 6.2816e-014 1.13307e-014
lhumerus -28.3063 -23.8799 91.8295
lradius 72.505
lwrist -25.1052
lhand -6.85399 36.0293
lfingers 7.12502
lthumb 19.0112 65.1202
rfemur -45.3498 14.785 -8.16946
rtibia 48.145
rfoot -6.17681 6.25495
rtoes -40.6449
lfemur -28.2627 6.14366 -0.642483
ltibia 56.2981
lfoot -13.3129 -0.468981
ltoes -23.1534
476
root 12.0785 15.3232 10.7636 -171.965 -64.33 161.732
lowerback 26.1537 3.73165 -2.9755
upperback 10.5153 2.631 -2.4434
thorax -2.8409 0.723808 -1.65963
lowerneck -15.0831 -4.98874 -5.91258
upperneck -3.70926 -6.17336 9.50882
head 1.78694 -2.92569 3.46551
rclavicle -8.94531e-015 -9.93923e-016
rhumerus 70.3556 8.34954 -72.2353
rradius 24.2181
rwrist -21.1076
rhand -5.70162 -12.0231
rfingers 7.12502
rthumb 20.1192 -41.0013
lclavicle -8.94531e-015 -9.93923e-016
lhumerus -28.1537 -24.1358 91.9866
lradius 71.5464
lwrist -24.7899
lhand -7.54885 35.4703
lfingers 7.12502
lthumb 18.3429 64.6255
rfemur -44.703 14.8593 -8.54211
rtibia 47.7796
rfoot -6.15754 6.32544
rtoes -39.7938
lfemur -27.7239 6.3043 -1.13275
ltibia 55.9355
lfoot -13.0981 -0.472772
ltoes -23.5958
477
root 12.0018 15.3766 10.7792 -171.652 -64.5421 161.397
lowerback 25.8191 3.6905 -2.89118
upperback 10.4192 2.64725 -2.43167
thorax -2.78483 0.747584 -1.68804
lowerneck -15.0273 -5.02758 -5.78054
upperneck -3.7612 -6.24692 9.52585
head 1.76538 -2.96559 3.44587
rclavicle -4.24405e-014 2.34566e-014
rhumerus 69.6837 7.93006 -74.374
rradius 23.6178
rwrist -18.7628
rhand -3.08847 -13.2124
rfingers 7.12502
rthumb 22.6291 -41.9059
lclavicle -4.24405e-014 2.34566e-014
lhumerus -28.1068 -24.3937 92.078
lradius 70.763
lwrist -24.4867
lhand -7.43229 35.1861
lfingers 7.12502
lthumb 18.455 64.3307
rfemur -44.0396 14.9824 -8.82942
rtibia 47.4
rfoot -6.17833 6.09201
rtoes -39.2132
lfemur -27.3591 6.19687 -1.46911
ltibia 55.5353
lfoot -12.9233 -0.566906
ltoes -24.3558
478
root 11.9271 15.426 10.7871 -171.41 -64.7167 161.111
lowerback 25.5071 3.65914 -2.97543
upperback 10.3199 2.63369 -2.39005
thorax -2.75178 0.750355 -1.58118
lowerneck -15.2342 -5.0912 -5.68534
upperneck -3.58248 -6.34899 9.55198
head 1.85606 -3.00748 3.42494
rclavicle -7.95139e-016 9.34288e-015
rhumerus 69.0171 7.75228 -75.7067
rradius 23.2548
rwrist -17.1797
rhand -2.48542 -13.5449
rfingers 7.12502
rthumb 23.2077 -42.1667
lclavicle -7.95139e-016 9.34288e-015
lhumerus -28.1824 -24.4844 92.2434
lradius 71.4827
lwrist -28.3149
lhand 1.34838 40.8135
lfingers 7.12502
lthumb 26.8812 68.9223
rfemur -43.3899 15.3145 -9.08917
rtibia 47.013
rfoot -6.30713 5.5862
rtoes -39.0736
lfemur -26.933 6.03098 -1.7277
ltibia 55.127
lfoot -12.9502 -0.860417
ltoes -23.3461
